<svg width="24" height="24" viewBox="0 0 24 24" fill="none" xmlns="http://www.w3.org/2000/svg">
<path fill-rule="evenodd" clip-rule="evenodd" d="M4.95283 9.20403C4.44786 9.20403 3.96357 9.40463 3.6065 9.7617C3.24943 10.1188 3.04883 10.6031 3.04883 11.108V19.095C3.04883 20.147 3.90083 21 4.95283 21H6.88283V9.20403H4.95283ZM20.4118 6.99703H15.8698V2.73603C15.87 2.35369 15.744 1.98197 15.5114 1.67858C15.2787 1.37519 14.9524 1.1571 14.5831 1.05816C14.2137 0.959217 13.8221 0.984966 13.4689 1.13141C13.1157 1.27785 12.8208 1.53679 12.6298 1.86803L8.39383 9.20403H8.38283V21H17.6168C18.4682 21 19.295 20.7148 19.9653 20.1899C20.6356 19.665 21.1108 18.9306 21.3148 18.104L23.1848 10.54C23.2889 10.1192 23.2959 9.68016 23.2052 9.25622C23.1145 8.83228 22.9284 8.43455 22.6612 8.09315C22.394 7.75175 22.0526 7.47564 21.6629 7.28573C21.2732 7.09582 20.8454 6.99709 20.4118 6.99703Z" fill="white" fill-opacity="0.2"/>
</svg>
