<svg width="15" height="15" viewBox="0 0 15 15" fill="none" xmlns="http://www.w3.org/2000/svg">
<g clip-path="url(#clip0_3224_14768)">
<path fill-rule="evenodd" clip-rule="evenodd" d="M7.5 10.6988C7.30109 10.6988 7.11032 10.6197 6.96967 10.4791C6.82902 10.3384 6.75 10.1477 6.75 9.94875C6.75 9.74984 6.82902 9.55907 6.96967 9.41842C7.11032 9.27777 7.30109 9.19875 7.5 9.19875C7.69891 9.19875 7.88968 9.27777 8.03033 9.41842C8.17098 9.55907 8.25 9.74984 8.25 9.94875C8.25 10.1477 8.17098 10.3384 8.03033 10.4791C7.88968 10.6197 7.69891 10.6988 7.5 10.6988V10.6988ZM6.875 4.55187C6.875 4.38611 6.94085 4.22714 7.05806 4.10993C7.17527 3.99272 7.33424 3.92687 7.5 3.92687C7.66576 3.92687 7.82473 3.99272 7.94194 4.10993C8.05915 4.22714 8.125 4.38611 8.125 4.55187V7.67687C8.125 7.84264 8.05915 8.00161 7.94194 8.11882C7.82473 8.23603 7.66576 8.30187 7.5 8.30187C7.33424 8.30187 7.17527 8.23603 7.05806 8.11882C6.94085 8.00161 6.875 7.84264 6.875 7.67687V4.55187ZM7.5 0.625C3.70313 0.625 0.625 3.70313 0.625 7.5C0.625 11.2975 3.70313 14.375 7.5 14.375C11.2969 14.375 14.375 11.2975 14.375 7.5C14.375 3.70313 11.2969 0.625 7.5 0.625Z" fill="white" fill-opacity="0.4"/>
</g>
<defs>
<clipPath id="clip0_3224_14768">
<rect width="15" height="15" fill="white"/>
</clipPath>
</defs>
</svg>
