<svg width="24" height="25" viewBox="0 0 24 25" fill="none" xmlns="http://www.w3.org/2000/svg">
<path fill-rule="evenodd" clip-rule="evenodd" d="M20.9673 12.653C20.6538 12.5984 20.3315 12.6706 20.0712 12.8536C19.8109 13.0367 19.634 13.3156 19.5793 13.629C19.2679 15.4178 18.3344 17.039 16.9435 18.2061C15.5526 19.3731 13.7939 20.011 11.9783 20.007C7.72428 20.007 4.26328 16.546 4.26328 12.291C4.26328 8.03703 7.72428 4.57603 11.9783 4.57603C13.9123 4.57603 15.7313 5.29003 17.1533 6.58003L16.1613 7.57203C16.0315 7.70132 15.9401 7.86407 15.8973 8.04219C15.8546 8.22031 15.862 8.40681 15.9189 8.58093C15.9758 8.75505 16.0799 8.90998 16.2196 9.02846C16.3594 9.14694 16.5292 9.22434 16.7103 9.25203L20.9223 9.90203C21.0762 9.92575 21.2334 9.91285 21.3814 9.86437C21.5293 9.81588 21.6638 9.73319 21.7738 9.62301C21.8838 9.51282 21.9662 9.37825 22.0144 9.23021C22.0626 9.08218 22.0753 8.92486 22.0513 8.77103L21.4023 4.56003C21.3744 4.37908 21.2969 4.20938 21.1785 4.06978C21.06 3.93017 20.9052 3.82611 20.7312 3.76915C20.5572 3.71218 20.3708 3.70453 20.1927 3.74705C20.0146 3.78957 19.8518 3.8806 19.7223 4.01003L18.8503 4.88303C16.9866 3.14065 14.5296 2.17282 11.9783 2.17603C6.40128 2.17603 1.86328 6.71403 1.86328 12.291C1.86328 17.869 6.40128 22.406 11.9783 22.406C16.9063 22.406 21.0963 18.888 21.9433 14.041C21.9979 13.7276 21.9257 13.4052 21.7427 13.1449C21.5597 12.8847 21.2807 12.7077 20.9673 12.653Z" fill="white" fill-opacity="0.2"/>
</svg>
