<svg width="32" height="32" viewBox="0 0 32 32" fill="none" xmlns="http://www.w3.org/2000/svg">
<path fill-rule="evenodd" clip-rule="evenodd" d="M21.3373 14.224C21.0196 14.2314 20.7036 14.1752 20.4079 14.0588C20.1122 13.9423 19.8428 13.7679 19.6155 13.5457C19.3881 13.3236 19.2075 13.0583 19.0843 12.7654C18.961 12.4724 18.8975 12.1578 18.8976 11.84C18.8977 11.5222 18.9614 11.2076 19.0848 10.9147C19.2082 10.6218 19.389 10.3566 19.6164 10.1346C19.8438 9.91264 20.1134 9.73836 20.4091 9.62204C20.7049 9.50573 21.0209 9.44973 21.3387 9.45733C21.961 9.47223 22.5528 9.72996 22.9877 10.1754C23.4225 10.6209 23.6658 11.2188 23.6656 11.8413C23.6655 12.4638 23.4218 13.0616 22.9867 13.5068C22.5516 13.9521 21.9597 14.2095 21.3373 14.224ZM19.0387 22.3733H11.0067C10.7235 22.3737 10.4454 22.2978 10.2017 22.1535C9.95804 22.0093 9.75771 21.8021 9.62182 21.5536C9.48593 21.3052 9.41949 21.0247 9.4295 20.7417C9.4395 20.4587 9.52557 20.1836 9.67867 19.9453L13.696 13.6853C13.8386 13.4626 14.0348 13.2794 14.2668 13.1525C14.4988 13.0255 14.7589 12.959 15.0233 12.959C15.2877 12.959 15.5479 13.0255 15.7799 13.1525C16.0118 13.2794 16.2081 13.4626 16.3507 13.6853L20.3653 19.9453C20.5184 20.1835 20.6044 20.4584 20.6145 20.7413C20.6245 21.0242 20.5582 21.3046 20.4225 21.553C20.2868 21.8014 20.0866 22.0087 19.8431 22.153C19.5996 22.2974 19.3217 22.3735 19.0387 22.3733ZM25.716 3H6.284C5.41303 3 4.57773 3.34599 3.96186 3.96186C3.34599 4.57773 3 5.41303 3 6.284V25.716C3 26.587 3.34599 27.4223 3.96186 28.0381C4.57773 28.654 5.41303 29 6.284 29H25.716C26.587 29 27.4223 28.654 28.0381 28.0381C28.654 27.4223 29 26.587 29 25.716V6.284C29 5.41303 28.654 4.57773 28.0381 3.96186C27.4223 3.34599 26.587 3 25.716 3Z" fill="white" fill-opacity="0.5"/>
</svg>
