<svg width="32" height="32" viewBox="0 0 32 32" fill="none" xmlns="http://www.w3.org/2000/svg">
<path fill-rule="evenodd" clip-rule="evenodd" d="M16.0009 24.3542C14.1465 24.3521 12.3686 23.6145 11.0573 22.3032C9.746 20.9919 9.00838 19.214 9.00627 17.3595C9.00803 15.5049 9.74549 13.7266 11.0568 12.415C12.3682 11.1035 14.1463 10.3657 16.0009 10.3635C17.8556 10.3657 19.6337 11.1035 20.945 12.415C22.2564 13.7266 22.9938 15.5049 22.9956 17.3595C22.9935 19.214 22.2559 20.9919 20.9446 22.3032C19.6333 23.6145 17.8554 24.3521 16.0009 24.3542ZM26.8183 6.8462H22.8796L21.3956 3.9542C21.1603 3.49638 20.8033 3.11229 20.3639 2.84413C19.9245 2.57597 19.4197 2.43414 18.9049 2.4342H13.0209C12.496 2.43414 11.9817 2.58162 11.5366 2.85981C11.0915 3.138 10.7336 3.5357 10.5036 4.00754L9.12227 6.8462H5.1836C4.74225 6.84603 4.30518 6.93281 3.89737 7.10159C3.48957 7.27036 3.119 7.51783 2.80686 7.82985C2.49471 8.14188 2.2471 8.51234 2.07816 8.92008C1.90922 9.32782 1.82227 9.76485 1.82227 10.2062V25.6742C1.82227 26.1156 1.90922 26.5526 2.07816 26.9603C2.2471 27.3681 2.49471 27.7385 2.80686 28.0506C3.119 28.3626 3.48957 28.61 3.89737 28.7788C4.30518 28.9476 4.74225 29.0344 5.1836 29.0342H26.8183C27.2596 29.0344 27.6967 28.9476 28.1045 28.7788C28.5123 28.61 28.8829 28.3626 29.195 28.0506C29.5072 27.7385 29.7548 27.3681 29.9237 26.9603C30.0926 26.5526 30.1796 26.1156 30.1796 25.6742V10.2062C30.1796 9.76485 30.0926 9.32782 29.9237 8.92008C29.7548 8.51234 29.5072 8.14188 29.195 7.82985C28.8829 7.51783 28.5123 7.27036 28.1045 7.10159C27.6967 6.93281 27.2596 6.84603 26.8183 6.8462Z" fill="white" fill-opacity="0.5"/>
<path fill-rule="evenodd" clip-rule="evenodd" d="M15.9987 12.8848C14.8125 12.8862 13.6753 13.3581 12.8367 14.197C11.998 15.0359 11.5264 16.1732 11.5254 17.3594C11.5261 18.5457 11.9976 19.6833 12.8363 20.5222C13.675 21.3612 14.8124 21.833 15.9987 21.8341C17.185 21.833 18.3224 21.3612 19.1611 20.5222C19.9999 19.6833 20.4714 18.5457 20.4721 17.3594C20.471 16.1732 19.9994 15.0359 19.1608 14.197C18.3221 13.3581 17.1849 12.8862 15.9987 12.8848Z" fill="white" fill-opacity="0.5"/>
</svg>
