<svg width="32" height="32" viewBox="0 0 32 32" fill="none" xmlns="http://www.w3.org/2000/svg">
<path fill-rule="evenodd" clip-rule="evenodd" d="M31.6294 14.5866L28.9134 10.8799C28.7648 10.6771 28.5705 10.5122 28.3463 10.3985C28.122 10.2848 27.8742 10.2255 27.6227 10.2255C27.3713 10.2255 27.1235 10.2848 26.8992 10.3985C26.675 10.5122 26.4807 10.6771 26.3321 10.8799L23.6161 14.5866C22.8427 15.6439 23.5974 17.1319 24.9067 17.1319H26.0801C25.9043 18.6988 25.3625 20.2025 24.4986 21.5215C23.6347 22.8405 22.4729 23.938 21.1068 24.7253C18.0387 26.5039 14.1067 26.5039 11.0361 24.7253C10.6997 24.5345 10.3015 24.4844 9.92831 24.5857C9.55509 24.687 9.23701 24.9317 9.04328 25.2664C8.84956 25.6011 8.79587 25.9988 8.89391 26.3729C8.99194 26.747 9.23377 27.0673 9.56675 27.2639C11.5441 28.4094 13.7883 29.0137 16.0734 29.0159C18.3575 29.0135 20.6007 28.4097 22.5774 27.2653C24.5524 26.1214 26.1935 24.4803 27.3374 22.5053C28.2826 20.8583 28.8552 19.0241 29.0147 17.1319H30.3387C30.6345 17.1321 30.9246 17.0502 31.1767 16.8955C31.4287 16.7407 31.633 16.5191 31.7667 16.2552C31.9004 15.9914 31.9584 15.6956 31.9341 15.4008C31.9099 15.106 31.8044 14.8237 31.6294 14.5853M7.38542 14.8693H6.06275C6.21861 13.493 6.65517 12.1634 7.34542 10.9626C8.23314 9.43258 9.50542 8.16122 11.0361 7.2746C14.1054 5.4986 18.0374 5.4986 21.1081 7.2746C21.4449 7.46945 21.8453 7.52251 22.2213 7.42212C22.5972 7.32172 22.9179 7.07609 23.1128 6.73927C23.3076 6.40244 23.3607 6.00201 23.2603 5.62606C23.1599 5.25012 22.9142 4.92945 22.5774 4.7346C18.6147 2.44393 13.5281 2.44393 9.56675 4.7346C7.59205 5.87891 5.95106 7.5199 4.80675 9.4946C3.86291 11.1421 3.29045 12.976 3.12942 14.8679H1.65742C1.36162 14.8678 1.07158 14.9496 0.8195 15.1044C0.567423 15.2592 0.363183 15.4808 0.229464 15.7446C0.0957463 16.0085 0.0377857 16.3042 0.0620206 16.599C0.0862555 16.8938 0.191737 17.1761 0.366749 17.4146L3.23075 21.3239C3.37934 21.5267 3.57363 21.6917 3.79787 21.8054C4.02212 21.9191 4.27 21.9783 4.52142 21.9783C4.77283 21.9783 5.02071 21.9191 5.24496 21.8054C5.4692 21.6917 5.66349 21.5267 5.81208 21.3239L8.67608 17.4146C8.8511 17.1761 8.95658 16.8938 8.98081 16.599C9.00505 16.3042 8.94709 16.0085 8.81337 15.7446C8.67965 15.4808 8.47541 15.2592 8.22333 15.1044C7.97126 14.9496 7.68121 14.8678 7.38542 14.8679" fill="white" fill-opacity="0.5"/>
</svg>
