<svg width="24" height="24" viewBox="0 0 24 24" fill="none" xmlns="http://www.w3.org/2000/svg">
<path fill-rule="evenodd" clip-rule="evenodd" d="M10.9062 21.5267C11.5722 21.9667 12.4312 21.9667 13.0962 21.5267C15.2112 20.1307 19.8162 16.7937 21.8002 13.0597C24.4152 8.1337 21.3442 3.2207 17.2842 3.2207C14.9702 3.2207 13.5782 4.4297 12.8082 5.4687C12.7157 5.59596 12.5944 5.69952 12.4543 5.77093C12.3141 5.84233 12.159 5.87956 12.0017 5.87956C11.8444 5.87956 11.6893 5.84233 11.5491 5.77093C11.409 5.69952 11.2877 5.59596 11.1952 5.4687C10.4252 4.4297 9.0332 3.2207 6.7192 3.2207C2.6592 3.2207 -0.411803 8.1337 2.2042 13.0597C4.1862 16.7937 8.7932 20.1307 10.9062 21.5267Z" fill="white" fill-opacity="0.2"/>
</svg>
