<svg width="16" height="16" viewBox="0 0 16 16" fill="none" xmlns="http://www.w3.org/2000/svg">
<path fill-rule="evenodd" clip-rule="evenodd" d="M13.9782 8.24126C13.7692 8.20487 13.5543 8.25298 13.3808 8.375C13.2073 8.49701 13.0893 8.68296 13.0529 8.89193C12.8453 10.0844 12.2229 11.1652 11.2957 11.9433C10.3684 12.7213 9.19596 13.1466 7.98552 13.1439C5.14952 13.1439 2.84219 10.8366 2.84219 7.99993C2.84219 5.16393 5.14952 2.8566 7.98552 2.8566C9.27485 2.8566 10.4875 3.3326 11.4355 4.1926L10.7742 4.85393C10.6877 4.94012 10.6268 5.04862 10.5982 5.16737C10.5697 5.28611 10.5747 5.41045 10.6126 5.52653C10.6506 5.64261 10.72 5.74589 10.8131 5.82488C10.9062 5.90387 11.0195 5.95547 11.1402 5.97393L13.9482 6.40726C14.0508 6.42308 14.1556 6.41447 14.2543 6.38215C14.3529 6.34983 14.4425 6.2947 14.5158 6.22125C14.5892 6.14779 14.6441 6.05807 14.6763 5.95938C14.7084 5.8607 14.7168 5.75582 14.7009 5.65326L14.2682 2.84593C14.2496 2.72529 14.198 2.61216 14.119 2.51909C14.04 2.42602 13.9368 2.35665 13.8208 2.31867C13.7048 2.28069 13.5805 2.2756 13.4618 2.30394C13.3431 2.33229 13.2345 2.39298 13.1482 2.47926L12.5669 3.06126C11.3244 1.89968 9.68641 1.25445 7.98552 1.2566C4.26752 1.2566 1.24219 4.28193 1.24219 7.99993C1.24219 11.7186 4.26752 14.7433 7.98552 14.7433C11.2709 14.7433 14.0642 12.3979 14.6289 9.1666C14.6652 8.95761 14.6171 8.74273 14.4951 8.5692C14.3731 8.39568 14.1872 8.27772 13.9782 8.24126Z" fill="white" fill-opacity="0.3"/>
</svg>
