<svg width="24" height="25" viewBox="0 0 24 25" fill="none" xmlns="http://www.w3.org/2000/svg">
<path fill-rule="evenodd" clip-rule="evenodd" d="M15.066 17.2364C15.066 17.4751 14.9712 17.704 14.8024 17.8728C14.6336 18.0416 14.4047 18.1364 14.166 18.1364C13.9273 18.1364 13.6984 18.0416 13.5296 17.8728C13.3608 17.704 13.266 17.4751 13.266 17.2364V12.2304C13.266 11.9917 13.3608 11.7628 13.5296 11.594C13.6984 11.4252 13.9273 11.3304 14.166 11.3304C14.4047 11.3304 14.6336 11.4252 14.8024 11.594C14.9712 11.7628 15.066 11.9917 15.066 12.2304V17.2364ZM10.933 17.2364C10.933 17.4751 10.8382 17.704 10.6694 17.8728C10.5006 18.0416 10.2717 18.1364 10.033 18.1364C9.79431 18.1364 9.56539 18.0416 9.3966 17.8728C9.22782 17.704 9.133 17.4751 9.133 17.2364V12.2304C9.133 11.9917 9.22782 11.7628 9.3966 11.594C9.56539 11.4252 9.79431 11.3304 10.033 11.3304C10.2717 11.3304 10.5006 11.4252 10.6694 11.594C10.8382 11.7628 10.933 11.9917 10.933 12.2304V17.2364ZM9.029 4.35938C9.029 4.09416 9.13436 3.8398 9.32189 3.65227C9.50943 3.46473 9.76378 3.35938 10.029 3.35938H14.173C14.724 3.35938 15.173 3.80737 15.173 4.35938V5.30038H9.029V4.35938ZM20.299 5.30038H17.173V4.35938C17.173 2.70537 15.828 1.35938 14.173 1.35938H10.029C8.375 1.35938 7.029 2.70537 7.029 4.35938V5.30038H3.7C3.38174 5.30038 3.07652 5.4268 2.85147 5.65185C2.62643 5.87689 2.5 6.18212 2.5 6.50037V7.10037C2.5 7.41863 2.62643 7.72386 2.85147 7.9489C3.07652 8.17395 3.38174 8.30037 3.7 8.30037H3.831L4.303 20.3364C4.32755 20.9561 4.59107 21.5423 5.03831 21.972C5.48555 22.4017 6.08178 22.6416 6.702 22.6414H17.498C18.118 22.6416 18.714 22.4016 19.161 21.9719C19.6079 21.5421 19.871 20.9559 19.895 20.3364L20.369 8.28637C20.6734 8.27078 20.9603 8.13916 21.1706 7.91857C21.381 7.69798 21.4989 7.40518 21.5 7.10037V6.50037C21.5 5.83837 20.962 5.30038 20.299 5.30038Z" fill="white"/>
</svg>
