<svg width="105" height="105" viewBox="0 0 105 105" fill="none" xmlns="http://www.w3.org/2000/svg">
<g clip-path="url(#clip0_3568_15520)">
<rect width="105" height="105" rx="6" fill="#4C4C4C"/>
<path fill-rule="evenodd" clip-rule="evenodd" d="M74.0546 45.3277C72.7715 45.3577 71.4953 45.1308 70.3011 44.6604C69.1069 44.19 68.0189 43.4856 67.1009 42.5886C66.1829 41.6915 65.4536 40.62 64.9557 39.437C64.4579 38.254 64.2016 36.9834 64.202 35.6999C64.2023 34.4165 64.4593 33.146 64.9578 31.9633C65.4563 30.7805 66.1863 29.7094 67.1047 28.8129C68.0232 27.9164 69.1117 27.2126 70.3061 26.7429C71.5006 26.2731 72.7769 26.047 74.06 26.0777C76.5733 26.1378 78.9633 27.1787 80.7194 28.9777C82.4754 30.7768 83.4581 33.1913 83.4574 35.7053C83.4566 38.2193 82.4726 40.6333 80.7156 42.4314C78.9586 44.2295 76.5679 45.269 74.0546 45.3277ZM64.7715 78.2385H32.3346C31.191 78.24 30.0681 77.9334 29.0839 77.3509C28.0998 76.7683 27.2908 75.9314 26.742 74.928C26.1932 73.9247 25.9249 72.792 25.9653 71.649C26.0057 70.5061 26.3533 69.3952 26.9715 68.4331L43.1954 43.1523C43.7711 42.253 44.5638 41.5129 45.5006 41.0004C46.4373 40.4878 47.488 40.2191 48.5558 40.2191C49.6236 40.2191 50.6742 40.4878 51.611 41.0004C52.5477 41.5129 53.3405 42.253 53.9162 43.1523L70.1292 68.4331C70.7472 69.3948 71.0948 70.5052 71.1354 71.6477C71.1761 72.7901 70.9082 73.9224 70.3601 74.9256C69.8119 75.9288 69.0037 76.7659 68.0203 77.3488C67.037 77.9317 65.9147 78.2391 64.7715 78.2385ZM91.7377 0H13.2623C9.74492 0 6.3716 1.39727 3.88444 3.88444C1.39727 6.3716 0 9.74492 0 13.2623V91.7377C0 95.2551 1.39727 98.6284 3.88444 101.116C6.3716 103.603 9.74492 105 13.2623 105H91.7377C95.2551 105 98.6284 103.603 101.116 101.116C103.603 98.6284 105 95.2551 105 91.7377V13.2623C105 9.74492 103.603 6.3716 101.116 3.88444C98.6284 1.39727 95.2551 0 91.7377 0Z" fill="#333333"/>
</g>
<rect x="2.5" y="2.5" width="100" height="100" rx="3.5" stroke="#333333" stroke-width="5"/>
<defs>
<clipPath id="clip0_3568_15520">
<rect width="105" height="105" rx="6" fill="white"/>
</clipPath>
</defs>
</svg>
