<svg width="24" height="24" viewBox="0 0 24 24" fill="none" xmlns="http://www.w3.org/2000/svg">
<g clip-path="url(#clip0_1023_7041)">
<g filter="url(#filter0_f_1023_7041)">
<path fill-rule="evenodd" clip-rule="evenodd" d="M13.0849 3.1372C16.0947 2.43716 19.2829 4.52918 21.0748 6.84409C22.6754 8.91197 21.7449 11.6063 21.5972 14.1343C21.4625 16.4403 22.2725 19.2792 20.2661 20.6867C18.2855 22.076 15.5781 19.9626 13.0849 20.1058C10.2135 20.2708 7.31518 23.0466 4.93828 21.5675C2.5694 20.0935 2.75658 16.6639 3.48838 14.1343C4.08855 12.0598 6.87615 11.4844 8.3409 9.80582C10.2216 7.6506 10.1591 3.8177 13.0849 3.1372Z" fill="url(#paint0_radial_1023_7041)"/>
</g>
<g filter="url(#filter1_f_1023_7041)">
<path fill-rule="evenodd" clip-rule="evenodd" d="M12.3986 18.9822C11.0372 18.8883 9.45079 19.0715 8.59525 17.9721C7.70306 16.8256 7.81781 15.1052 8.27052 13.6776C8.6799 12.3865 9.72349 11.4804 10.8623 10.8227C11.8922 10.2279 13.0344 10.1462 14.1926 10.2573C15.535 10.3861 17.2259 10.2717 17.8827 11.4961C18.5353 12.7125 17.4273 14.1295 16.9892 15.4703C16.6344 16.5561 16.4957 17.7773 15.6087 18.4559C14.6927 19.1567 13.5169 19.0594 12.3986 18.9822Z" fill="url(#paint1_radial_1023_7041)"/>
</g>
</g>
<defs>
<filter id="filter0_f_1023_7041" x="-1" y="-1" width="27" height="27" filterUnits="userSpaceOnUse" color-interpolation-filters="sRGB">
<feFlood flood-opacity="0" result="BackgroundImageFix"/>
<feBlend mode="normal" in="SourceGraphic" in2="BackgroundImageFix" result="shape"/>
<feGaussianBlur stdDeviation="2" result="effect1_foregroundBlur_1023_7041"/>
</filter>
<filter id="filter1_f_1023_7041" x="5.92578" y="8.21508" width="14.1582" height="12.8207" filterUnits="userSpaceOnUse" color-interpolation-filters="sRGB">
<feFlood flood-opacity="0" result="BackgroundImageFix"/>
<feBlend mode="normal" in="SourceGraphic" in2="BackgroundImageFix" result="shape"/>
<feGaussianBlur stdDeviation="1" result="effect1_foregroundBlur_1023_7041"/>
</filter>
<radialGradient id="paint0_radial_1023_7041" cx="0" cy="0" r="1" gradientUnits="userSpaceOnUse" gradientTransform="translate(12.5 12.5) rotate(90) scale(9.5)">
<stop stop-color="#FFE489"/>
<stop offset="0.625" stop-color="#CD9567"/>
<stop offset="1" stop-color="#9A5648"/>
</radialGradient>
<radialGradient id="paint1_radial_1023_7041" cx="0" cy="0" r="1" gradientUnits="userSpaceOnUse" gradientTransform="translate(12.8552 14.5715) rotate(-78.3809) scale(4.71429)">
<stop stop-color="white"/>
<stop offset="1" stop-color="#FFE489"/>
</radialGradient>
<clipPath id="clip0_1023_7041">
<rect width="24" height="24" fill="white"/>
</clipPath>
</defs>
</svg>
