<svg width="24" height="24" viewBox="0 0 24 24" fill="none" xmlns="http://www.w3.org/2000/svg">
<g clip-path="url(#clip0_1162_7040)">
<path d="M6.99991 23.8939C6.82198 23.8636 6.64601 23.8229 6.47291 23.7719L3.60391 22.8719C2.56642 22.5671 1.6553 21.935 1.0065 21.0699C0.357698 20.2048 0.00600785 19.1532 0.00390625 18.0719V5.99986C0.00494608 5.1779 0.208608 4.36888 0.596865 3.6444C0.985122 2.91992 1.546 2.30233 2.22985 1.8463C2.91369 1.39027 3.69942 1.10986 4.51748 1.0299C5.33554 0.949935 6.16069 1.07288 6.91991 1.38786L6.99991 1.42486V23.8939ZM20.6799 1.16686L20.6589 1.15986L17.9439 0.259856C17.6367 0.160237 17.3206 0.0909066 16.9999 0.0528564V22.3149L19.0539 22.9069C19.6425 23.0501 20.2558 23.0578 20.8478 22.9294C21.4398 22.801 21.9948 22.5399 22.4711 22.1656C22.9474 21.7914 23.3325 21.3139 23.5974 20.7691C23.8622 20.2244 23.9998 19.6266 23.9999 19.0209V5.87586C23.9984 4.84469 23.6787 3.83912 23.0846 2.99635C22.4904 2.15359 21.6506 1.51469 20.6799 1.16686ZM14.9999 0.189856C14.9999 0.189856 9.15691 1.86286 8.99991 1.87986V23.8799C9.09991 23.8589 14.9999 22.2439 14.9999 22.2439V0.189856Z" fill="white" fill-opacity="0.8"/>
</g>
<defs>
<clipPath id="clip0_1162_7040">
<rect width="24" height="24" fill="white"/>
</clipPath>
</defs>
</svg>
