<svg width="24" height="24" viewBox="0 0 24 24" fill="none" xmlns="http://www.w3.org/2000/svg">
<path d="M20.9987 12.4236V10.9996C20.9987 8.61269 20.0505 6.3235 18.3627 4.63567C16.6749 2.94785 14.3857 1.99963 11.9987 1.99963C9.61178 1.99963 7.3226 2.94785 5.63477 4.63567C3.94694 6.3235 2.99873 8.61269 2.99873 10.9996V12.4236C1.94989 12.8855 1.09153 13.6936 0.567351 14.7127C0.0431725 15.7318 -0.115009 16.9001 0.119287 18.0219C0.353584 19.1437 0.966137 20.151 1.8544 20.8751C2.74266 21.5992 3.85272 21.9962 4.99873 21.9996C5.52916 21.9996 6.03787 21.7889 6.41294 21.4138C6.78802 21.0388 6.99873 20.5301 6.99873 19.9996V13.9996C6.99873 13.4692 6.78802 12.9605 6.41294 12.5854C6.03787 12.2103 5.52916 11.9996 4.99873 11.9996V10.9996C4.99873 9.14312 5.73623 7.36264 7.04898 6.04989C8.36174 4.73713 10.1422 3.99963 11.9987 3.99963C13.8552 3.99963 15.6357 4.73713 16.9485 6.04989C18.2612 7.36264 18.9987 9.14312 18.9987 10.9996V11.9996C18.4683 11.9996 17.9596 12.2103 17.5845 12.5854C17.2094 12.9605 16.9987 13.4692 16.9987 13.9996V19.9996C16.9987 20.5301 17.2094 21.0388 17.5845 21.4138C17.9596 21.7889 18.4683 21.9996 18.9987 21.9996C20.1447 21.9962 21.2548 21.5992 22.1431 20.8751C23.0313 20.151 23.6439 19.1437 23.8782 18.0219C24.1125 16.9001 23.9543 15.7318 23.4301 14.7127C22.9059 13.6936 22.0476 12.8855 20.9987 12.4236V12.4236Z" fill="white" fill-opacity="0.8"/>
</svg>
